<?xml version="1.0" encoding="iso-8859-1"?>
<!-- Generator: Adobe Illustrator 19.0.0, SVG Export Plug-In . SVG Version: 6.00 Build 0)  -->
<svg version="1.1" id="Capa_1" xmlns="http://www.w3.org/2000/svg" xmlns:xlink="http://www.w3.org/1999/xlink" x="0px" y="0px"
	 viewBox="0 0 58 58" style="enable-background:new 0 0 58 58;" xml:space="preserve">
<circle style="fill:#1ACFF8;" cx="29" cy="29" r="29"/>
<path style="fill:#556080;" d="M29,3c14.336,0,26,11.664,26,26S43.336,55,29,55S3,43.336,3,29S14.664,3,29,3 M29,0
	C12.984,0,0,12.984,0,29s12.984,29,29,29s29-12.984,29-29S45.016,0,29,0L29,0z"/>
<g>
	<path style="fill:#1E8596;" d="M14.457,24.293c-0.391-0.391-1.023-0.391-1.414,0l-2.293,2.293l-2.293-2.293
		c-0.391-0.391-1.023-0.391-1.414,0s-0.391,1.023,0,1.414L9.336,28l-2.293,2.293c-0.391,0.391-0.391,1.023,0,1.414
		C7.238,31.902,7.494,32,7.75,32s0.512-0.098,0.707-0.293l2.293-2.293l2.293,2.293C13.238,31.902,13.494,32,13.75,32
		s0.512-0.098,0.707-0.293c0.391-0.391,0.391-1.023,0-1.414L12.164,28l2.293-2.293C14.848,25.316,14.848,24.684,14.457,24.293z"/>
	<path style="fill:#1E8596;" d="M26.457,24.293c-0.391-0.391-1.023-0.391-1.414,0l-2.293,2.293l-2.293-2.293
		c-0.391-0.391-1.023-0.391-1.414,0s-0.391,1.023,0,1.414L21.336,28l-2.293,2.293c-0.391,0.391-0.391,1.023,0,1.414
		C19.238,31.902,19.494,32,19.75,32s0.512-0.098,0.707-0.293l2.293-2.293l2.293,2.293C25.238,31.902,25.494,32,25.75,32
		s0.512-0.098,0.707-0.293c0.391-0.391,0.391-1.023,0-1.414L24.164,28l2.293-2.293C26.848,25.316,26.848,24.684,26.457,24.293z"/>
	<path style="fill:#1E8596;" d="M36.664,28l2.293-2.293c0.391-0.391,0.391-1.023,0-1.414s-1.023-0.391-1.414,0l-2.293,2.293
		l-2.293-2.293c-0.391-0.391-1.023-0.391-1.414,0s-0.391,1.023,0,1.414L33.836,28l-2.293,2.293c-0.391,0.391-0.391,1.023,0,1.414
		C31.738,31.902,31.994,32,32.25,32s0.512-0.098,0.707-0.293l2.293-2.293l2.293,2.293C37.738,31.902,37.994,32,38.25,32
		s0.512-0.098,0.707-0.293c0.391-0.391,0.391-1.023,0-1.414L36.664,28z"/>
</g>
<g>
	<path style="fill:#1CB8D1;" d="M14.25,34h-7c-0.553,0-1,0.448-1,1s0.447,1,1,1h7c0.553,0,1-0.448,1-1S14.803,34,14.25,34z"/>
	<path style="fill:#1CB8D1;" d="M26.25,34h-7c-0.553,0-1,0.448-1,1s0.447,1,1,1h7c0.553,0,1-0.448,1-1S26.803,34,26.25,34z"/>
	<path style="fill:#1CB8D1;" d="M38.75,34h-7c-0.553,0-1,0.448-1,1s0.447,1,1,1h7c0.553,0,1-0.448,1-1S39.303,34,38.75,34z"/>
	<path style="fill:#1CB8D1;" d="M50.75,34h-7c-0.553,0-1,0.448-1,1s0.447,1,1,1h7c0.553,0,1-0.448,1-1S51.303,34,50.75,34z"/>
</g>
<g>
</g>
<g>
</g>
<g>
</g>
<g>
</g>
<g>
</g>
<g>
</g>
<g>
</g>
<g>
</g>
<g>
</g>
<g>
</g>
<g>
</g>
<g>
</g>
<g>
</g>
<g>
</g>
<g>
</g>
</svg>
