<?xml version="1.0" encoding="iso-8859-1"?>
<!-- Generator: Adobe Illustrator 19.0.0, SVG Export Plug-In . SVG Version: 6.00 Build 0)  -->
<svg version="1.1" id="Layer_1" xmlns="http://www.w3.org/2000/svg" xmlns:xlink="http://www.w3.org/1999/xlink" x="0px" y="0px"
	 viewBox="0 0 512.003 512.003" style="enable-background:new 0 0 512.003 512.003;" xml:space="preserve">
<polygon style="fill:#D6CED1;" points="402.376,8.258 358.333,256 402.376,503.742 446.419,503.742 446.419,8.258 "/>
<polygon style="fill:#ECE7EA;" points="402.381,8.258 402.381,503.742 65.584,503.742 65.584,85.333 120.638,63.312 142.659,8.258 
	"/>
<polygon style="fill:#D6CED1;" points="142.659,8.258 142.659,85.333 65.584,85.333 "/>
<rect x="120.635" y="338.581" style="fill:#F14742;" width="91.32" height="88.086"/>
<path d="M446.418,0h-11.011c-4.562,0-8.258,3.697-8.258,8.258s3.696,8.258,8.258,8.258h2.753v478.968h-2.753
	c-4.562,0-8.258,3.697-8.258,8.258c0,4.561,3.696,8.258,8.258,8.258h11.011c4.562,0,8.258-3.697,8.258-8.258V8.258
	C454.676,3.697,450.979,0,446.418,0z"/>
<path d="M347.322,154.151H120.639c-4.562,0-8.258,3.697-8.258,8.258s3.696,8.258,8.258,8.258H347.32
	c4.562,0,8.258-3.697,8.258-8.258S351.882,154.151,347.322,154.151z"/>
<path d="M347.322,286.28H120.639c-4.562,0-8.258,3.697-8.258,8.258c0,4.561,3.696,8.258,8.258,8.258H347.32
	c4.562,0,8.258-3.697,8.258-8.258C355.578,289.977,351.882,286.28,347.322,286.28z"/>
<path d="M347.322,330.323h-91.32c-4.562,0-8.258,3.697-8.258,8.258c0,4.561,3.696,8.258,8.258,8.258h91.32
	c4.562,0,8.258-3.697,8.258-8.258C355.58,334.02,351.882,330.323,347.322,330.323z"/>
<path d="M402.375,0H142.66c-0.276,0-0.552,0.014-0.825,0.042c-0.203,0.021-0.402,0.055-0.6,0.09c-0.066,0.012-0.134,0.018-0.2,0.031
	c-0.237,0.047-0.468,0.108-0.696,0.175c-0.028,0.009-0.057,0.013-0.085,0.022c-0.233,0.07-0.461,0.155-0.686,0.246
	c-0.024,0.01-0.048,0.017-0.073,0.026c-0.215,0.089-0.422,0.189-0.627,0.296c-0.034,0.018-0.07,0.032-0.104,0.05
	c-0.19,0.102-0.373,0.216-0.555,0.331c-0.046,0.03-0.095,0.054-0.14,0.085c-0.17,0.113-0.33,0.238-0.491,0.363
	c-0.053,0.042-0.108,0.077-0.16,0.12c-0.19,0.156-0.372,0.323-0.548,0.497c-0.017,0.017-0.034,0.03-0.051,0.046L59.746,79.495
	c-0.02,0.02-0.036,0.043-0.056,0.063c-0.168,0.172-0.331,0.349-0.484,0.535c-0.048,0.059-0.09,0.123-0.138,0.184
	c-0.119,0.152-0.237,0.305-0.345,0.466c-0.036,0.054-0.066,0.111-0.101,0.166c-0.11,0.173-0.219,0.347-0.316,0.529
	c-0.022,0.041-0.039,0.083-0.059,0.123c-0.102,0.199-0.2,0.4-0.287,0.608c-0.012,0.029-0.021,0.059-0.033,0.089
	c-0.088,0.22-0.171,0.443-0.24,0.672c-0.009,0.029-0.014,0.058-0.023,0.088c-0.067,0.228-0.128,0.458-0.174,0.694
	c-0.013,0.065-0.019,0.131-0.03,0.196c-0.035,0.2-0.07,0.4-0.09,0.604c-0.028,0.273-0.042,0.548-0.042,0.825v418.409
	c0,4.561,3.696,8.258,8.258,8.258h336.789c4.562,0,8.258-3.697,8.258-8.258V8.258C410.633,3.697,406.936,0,402.375,0z
	 M134.402,28.194v48.881h-48.88L134.402,28.194z M394.117,495.484H73.843V93.591h68.817c4.562,0,8.258-3.697,8.258-8.258V16.516
	h243.198v478.968H394.117z"/>
<path d="M175.693,93.591H347.32c4.562,0,8.258-3.697,8.258-8.258s-3.696-8.258-8.258-8.258H175.693
	c-4.562,0-8.258,3.697-8.258,8.258S171.132,93.591,175.693,93.591z"/>
<path d="M347.322,198.194h-91.32c-4.562,0-8.258,3.697-8.258,8.258s3.696,8.258,8.258,8.258h91.32c4.562,0,8.258-3.697,8.258-8.258
	S351.882,198.194,347.322,198.194z"/>
<path d="M347.322,242.237h-91.32c-4.562,0-8.258,3.697-8.258,8.258s3.696,8.258,8.258,8.258h91.32c4.562,0,8.258-3.697,8.258-8.258
	S351.882,242.237,347.322,242.237z"/>
<path d="M211.959,346.839c4.562,0,8.258-3.697,8.258-8.258c0-4.561-3.696-8.258-8.258-8.258h-91.32
	c-4.562,0-8.258,3.697-8.258,8.258v88.086c0,4.561,3.696,8.258,8.258,8.258h91.32c4.562,0,8.258-3.697,8.258-8.258v-55.054
	c0-4.561-3.696-8.258-8.258-8.258c-4.562,0-8.258,3.697-8.258,8.258v46.796h-74.804v-71.57H211.959z"/>
<path d="M120.639,258.753h91.32c4.562,0,8.258-3.697,8.258-8.258s-3.696-8.258-8.258-8.258h-91.32c-4.562,0-8.258,3.697-8.258,8.258
	S116.078,258.753,120.639,258.753z"/>
<path d="M292.268,418.409h-36.266c-4.562,0-8.258,3.697-8.258,8.258c0,4.561,3.696,8.258,8.258,8.258h36.266
	c4.562,0,8.258-3.697,8.258-8.258C300.526,422.106,296.828,418.409,292.268,418.409z"/>
<path d="M347.322,374.366h-91.32c-4.562,0-8.258,3.697-8.258,8.258c0,4.561,3.696,8.258,8.258,8.258h91.32
	c4.562,0,8.258-3.697,8.258-8.258C355.58,378.063,351.882,374.366,347.322,374.366z"/>
<line style="fill:none;stroke:#000000;stroke-width:15;stroke-linecap:round;stroke-linejoin:round;stroke-miterlimit:10;" x1="120.635" y1="206.452" x2="211.959" y2="206.452"/>
<g>
</g>
<g>
</g>
<g>
</g>
<g>
</g>
<g>
</g>
<g>
</g>
<g>
</g>
<g>
</g>
<g>
</g>
<g>
</g>
<g>
</g>
<g>
</g>
<g>
</g>
<g>
</g>
<g>
</g>
</svg>
