<?xml version="1.0" encoding="iso-8859-1"?>
<!-- Generator: Adobe Illustrator 16.0.0, SVG Export Plug-In . SVG Version: 6.00 Build 0)  -->
<!DOCTYPE svg PUBLIC "-//W3C//DTD SVG 1.1//EN" "http://www.w3.org/Graphics/SVG/1.1/DTD/svg11.dtd">
<svg xmlns="http://www.w3.org/2000/svg" xmlns:xlink="http://www.w3.org/1999/xlink" version="1.1" id="Capa_1" x="0px" y="0px" width="512px" height="512px" viewBox="0 0 468.015 468.014" style="enable-background:new 0 0 468.015 468.014;" xml:space="preserve">
<g>
	<path d="M468.015,218.63l-45.785-98.58l-0.662,0.304v-1.912l-0.42,0.169l0.272-0.686L243.37,45.404L50.431,118.691l-0.618-0.243   v0.112L0,191.861l49.813-4.395v164.162l179.238,70.705v0.277h13.272v-0.277l179.232-70.705V238.591L468.015,218.63z    M243.642,188.627L243.63,59.847l160.631,65.441L243.642,188.627z M229.057,408.053L63.094,342.597V137.955l165.962,65.465V408.053   z M408.292,342.597l-165.963,65.45V203.428l36.481,96.528l129.481-55.655V342.597z" fill="#2196f3"/>
</g>
<g>
</g>
<g>
</g>
<g>
</g>
<g>
</g>
<g>
</g>
<g>
</g>
<g>
</g>
<g>
</g>
<g>
</g>
<g>
</g>
<g>
</g>
<g>
</g>
<g>
</g>
<g>
</g>
<g>
</g>
</svg>
