<?xml version="1.0" encoding="iso-8859-1"?>
<!-- Generator: Adobe Illustrator 16.0.0, SVG Export Plug-In . SVG Version: 6.00 Build 0)  -->
<!DOCTYPE svg PUBLIC "-//W3C//DTD SVG 1.1//EN" "http://www.w3.org/Graphics/SVG/1.1/DTD/svg11.dtd">
<svg xmlns="http://www.w3.org/2000/svg" xmlns:xlink="http://www.w3.org/1999/xlink" version="1.1" id="Capa_1" x="0px" y="0px" width="512px" height="512px" viewBox="0 0 472.512 472.513" style="enable-background:new 0 0 472.512 472.513;" xml:space="preserve">
<g>
	<path d="M472.512,236.258c0-56.898-19.986-110.723-56.624-153.468c3.405-7.296,2.119-16.24-3.904-22.263   c-6.021-6.023-14.967-7.31-22.263-3.903C346.974,19.985,293.153,0,236.253,0C179.355,0,125.532,19.984,82.786,56.622   c-7.295-3.403-16.237-2.115-22.26,3.905c-6.022,6.022-7.309,14.965-3.905,22.261C19.985,125.534,0,179.356,0,236.256   c0,56.898,19.985,110.721,56.623,153.469c-3.403,7.295-2.116,16.236,3.906,22.259c3.848,3.848,8.89,5.771,13.934,5.771   c2.849,0,5.691-0.638,8.325-1.866c42.749,36.64,96.573,56.625,153.473,56.625c56.898,0,110.72-19.984,153.465-56.62   c2.634,1.229,5.478,1.865,8.327,1.865c5.042,0,10.086-1.925,13.934-5.771c6.021-6.022,7.309-14.965,3.904-22.261   C452.528,346.979,472.513,293.157,472.512,236.258z M408.151,380.286l-60.013-60.017c18.174-24.098,28.013-53.297,28.013-84.012   c0-30.717-9.84-59.917-28.015-84.016l60.013-60.014c33.892,40.306,52.363,90.743,52.363,144.027   C460.513,289.542,442.042,339.979,408.151,380.286z M154.824,317.688c-5.616-5.615-13.772-7.113-20.764-4.533   c-34.173-45.355-34.173-108.444,0.001-153.797c2.201,0.812,4.512,1.237,6.828,1.237c5.043,0,10.086-1.925,13.934-5.772   c5.619-5.618,7.115-13.78,4.528-20.774c22.051-16.663,48.782-25.686,76.904-25.686s54.854,9.022,76.904,25.686   c-2.586,6.994-1.091,15.156,4.528,20.775c3.848,3.848,8.891,5.771,13.934,5.771c2.321,0,4.638-0.428,6.843-1.242   c16.663,22.05,25.686,48.782,25.686,76.906c0,28.121-9.021,54.853-25.683,76.901c-6.995-2.589-15.159-1.093-20.778,4.526   c-5.62,5.621-7.115,13.785-4.527,20.779c-22.052,16.663-48.783,25.688-76.906,25.688c-28.122,0-54.854-9.023-76.905-25.688   C161.94,331.473,160.444,323.307,154.824,317.688z M380.283,64.362l-60.015,60.014c-24.099-18.174-53.298-28.014-84.013-28.014   s-59.915,9.84-84.013,28.014L92.225,64.36C132.532,30.47,182.969,12,236.252,12C289.537,12,339.974,30.472,380.283,64.362z    M64.367,92.235l60.021,60.02c-37.267,49.563-37.268,118.437,0,168.003l-60.02,60.02C-5.295,297.254-5.295,175.256,64.367,92.235z    M92.228,408.15l60.014-60.014c24.1,18.176,53.299,28.017,84.015,28.017s59.917-9.841,84.016-28.017l60.014,60.016   c-40.308,33.889-90.743,52.359-144.026,52.359C182.975,460.513,132.536,442.04,92.228,408.15z" fill="#2196f3"/>
</g>
<g>
</g>
<g>
</g>
<g>
</g>
<g>
</g>
<g>
</g>
<g>
</g>
<g>
</g>
<g>
</g>
<g>
</g>
<g>
</g>
<g>
</g>
<g>
</g>
<g>
</g>
<g>
</g>
<g>
</g>
</svg>
